<svg width="480" height="480" viewBox="0 0 480 480" fill="none" xmlns="http://www.w3.org/2000/svg">
<g style="mix-blend-mode:plus-lighter" filter="url(#filter0_f_102_403)">
<path d="M126.029 262.837C126.005 262.125 125.84 261.401 125.457 260.791C125.073 260.182 124.51 259.739 123.854 259.55C123.198 259.361 122.485 259.437 121.837 259.749C121.188 260.061 120.663 260.586 120.264 261.177C119.05 262.99 117.916 264.801 116.833 266.694C112.543 274.118 109.329 281.923 107.234 290.014C103.261 306.37 99.0142 321.65 98.5562 340.507C99.3191 353.802 102.571 367.232 110.104 378.525C111.358 380.375 112.735 382.143 114.237 383.794C114.752 384.352 115.446 384.737 116.209 384.835C116.971 384.933 117.735 384.74 118.341 384.29C118.947 383.841 119.353 383.166 119.48 382.408C119.608 381.649 119.44 380.873 119.056 380.219C118.085 378.538 117.235 376.796 116.491 375.012C112.062 364.206 111.07 352.129 111.737 340.507C113.695 326.476 118.825 309.659 122.724 294.022C124.788 286.05 125.914 277.792 126.078 269.279C126.129 267.118 126.107 264.984 126.029 262.837Z" fill="#2B2AA0"/>
</g>
<g style="mix-blend-mode:plus-lighter" filter="url(#filter1_f_102_403)">
<path d="M354.764 263.837C354.788 263.125 354.953 262.401 355.336 261.791C355.72 261.182 356.283 260.739 356.939 260.55C357.595 260.361 358.307 260.437 358.956 260.749C359.605 261.061 360.13 261.586 360.529 262.177C361.743 263.99 362.877 265.801 363.96 267.694C368.25 275.118 371.464 282.923 373.559 291.014C377.532 307.37 381.779 322.65 382.237 341.507C381.474 354.802 378.222 368.232 370.689 379.525C369.435 381.375 368.058 383.143 366.556 384.794C366.041 385.352 365.347 385.737 364.584 385.835C363.821 385.933 363.058 385.74 362.452 385.29C361.846 384.841 361.44 384.166 361.313 383.408C361.185 382.649 361.353 381.873 361.737 381.219C362.708 379.538 363.558 377.796 364.302 376.012C368.731 365.206 369.723 353.129 369.056 341.507C367.098 327.476 361.968 310.659 358.069 295.022C356.005 287.05 354.879 278.792 354.715 270.279C354.664 268.118 354.686 265.984 354.764 263.837Z" fill="#2B2AA0"/>
</g>
<g style="mix-blend-mode:lighten" filter="url(#filter2_f_102_403)">
<path d="M371.646 188.507C373.238 188.681 374.764 188.201 375.889 187.073C377.014 185.951 377.646 184.272 377.646 182.507C377.646 180.741 377.014 179.063 375.889 177.941C374.764 176.812 373.238 176.333 371.646 176.507C371.068 176.569 370.491 176.632 369.911 176.694C363.322 177.405 356.733 178.116 350.146 178.826C346.997 179.264 343.293 178.777 341.213 177.328C341.082 177.236 340.978 177.149 340.927 177.123C340.868 177.104 340.911 177.126 340.896 177.507C340.838 176.971 340.549 176.457 340.129 176.078C339.706 175.699 339.185 175.487 338.646 175.487C338.108 175.487 337.587 175.699 337.164 176.078C336.743 176.457 336.455 176.971 336.396 177.507C336.475 179.38 337.183 179.981 337.68 180.687C341.265 184.574 345.704 185.683 350.146 186.187C356.733 186.898 363.322 187.609 369.911 188.319C370.491 188.382 371.068 188.444 371.646 188.507Z" fill="#2B2AA0"/>
</g>
<g style="mix-blend-mode:lighten" filter="url(#filter3_f_102_403)">
<path d="M139.455 175.999C139.353 176.572 139.462 177.17 139.777 177.665C140.093 178.16 140.585 178.511 141.152 178.642C141.718 178.773 142.315 178.675 142.816 178.369C143.317 178.063 143.677 177.574 143.838 177.015C145.163 172.406 146.475 167.795 147.775 163.181C150.284 154.277 152.747 145.363 155.165 136.438L155.021 136.924C169.21 109.567 207.382 103.572 238.696 103.006C238.961 103.004 239.226 103.003 239.49 103.002C270.117 103.351 309.804 108.507 323.082 133.995L323.075 133.965C325.657 143.389 328.289 152.802 330.973 162.202C332.288 166.812 333.616 171.418 334.956 176.022C335.119 176.581 335.481 177.068 335.983 177.373C336.485 177.677 337.083 177.773 337.649 177.64C338.214 177.507 338.706 177.154 339.02 176.658C339.333 176.162 339.44 175.564 339.337 174.991C338.483 170.273 337.618 165.558 336.74 160.845C334.95 151.234 333.11 141.635 331.218 132.048L331.211 132.018C313.903 94.8631 272.219 92.3149 239.442 91.0016C239.161 91.0028 238.879 91.0045 238.597 91.0069C205.525 92.0216 163.682 97.848 147.272 134.089L147.127 134.575C145.374 143.654 143.666 152.744 142.003 161.844C141.141 166.559 140.292 171.278 139.455 175.999Z" fill="#2B2AA0"/>
</g>
<g style="mix-blend-mode:lighten" filter="url(#filter4_f_102_403)">
<path d="M107.146 176.007C105.555 175.835 104.029 176.316 102.904 177.444C101.779 178.566 101.146 180.243 101.146 182.007C101.146 183.77 101.779 185.447 102.904 186.57C104.029 187.698 105.555 188.179 107.146 188.007C107.738 187.944 108.349 187.879 108.943 187.812C117.278 186.857 125.585 185.7 133.646 184.678C136.864 184.344 139.417 183.161 141.643 180.732C142.142 180.016 142.999 179.344 142.883 177.258C142.766 176.732 142.423 176.252 141.963 175.922C141.5 175.591 140.959 175.437 140.423 175.497C139.888 175.556 139.393 175.825 139.015 176.249C138.638 176.673 138.409 177.216 138.41 177.755C138.345 177.307 138.434 177.191 138.39 177.186C138.359 177.18 138.266 177.258 138.143 177.339C137.06 178.098 134.997 178.611 133.646 178.336C125.235 177.601 117.025 176.996 108.856 176.187C108.283 176.129 107.7 176.069 107.146 176.007Z" fill="#2B2AA0"/>
</g>
<g style="mix-blend-mode:screen" filter="url(#filter5_f_102_403)">
<path d="M149.21 142.798C149.062 143.307 149.096 143.859 149.328 144.342C149.559 144.825 149.965 145.197 150.462 145.379C150.958 145.56 151.508 145.538 151.997 145.319C152.485 145.099 152.868 144.699 153.083 144.215C154.374 141.354 156.117 138.716 158.151 136.32C177.966 115.179 209.868 111.093 238.692 110.507C238.7 110.507 238.709 110.506 238.718 110.506C267.488 110.738 299.621 114.14 320.457 133.787C322.508 136.058 324.221 138.667 325.142 141.494C325.303 141.999 325.638 142.44 326.099 142.712C326.559 142.985 327.104 143.069 327.618 142.944C328.131 142.819 328.576 142.494 328.86 142.04C329.144 141.587 329.24 141.042 329.151 140.519C328.493 136.836 326.799 133.394 324.726 130.429C303.352 104.951 269.079 99.8435 238.629 99.5067C238.62 99.5068 238.611 99.5069 238.601 99.5069C208.309 100.121 173.465 106.365 153.787 133.085C151.819 136.086 150.224 139.355 149.21 142.798Z" fill="#2B2AA0"/>
</g>
<path d="M123.619 261.736C123.682 261.479 123.639 261.207 123.5 260.982C123.36 260.756 123.136 260.595 122.876 260.534C122.616 260.472 122.342 260.516 122.117 260.655C121.891 260.795 121.732 261.019 121.673 261.277C121.333 262.762 121.006 264.197 120.662 265.702C115.785 287.089 110.907 308.494 106.142 329.891C105.012 335.186 104.578 340.578 104.594 345.962C104.604 347.486 104.66 349.011 104.772 350.532C104.779 350.63 104.825 350.722 104.9 350.787C104.975 350.852 105.072 350.885 105.171 350.878C105.269 350.872 105.361 350.826 105.427 350.752C105.492 350.678 105.526 350.58 105.52 350.482C105.43 348.978 105.396 347.47 105.406 345.962C105.463 340.64 105.972 335.286 107.15 330.122C112.206 308.798 117.378 287.462 122.548 266.147C122.912 264.646 123.26 263.216 123.619 261.736Z" fill="white"/>
<path d="M357.174 262.736C357.111 262.479 357.154 262.207 357.293 261.982C357.432 261.756 357.657 261.595 357.917 261.534C358.177 261.472 358.451 261.516 358.676 261.655C358.902 261.795 359.061 262.019 359.12 262.277C359.46 263.762 359.787 265.197 360.131 266.702C365.008 288.089 369.886 309.494 374.651 330.891C375.781 336.186 376.215 341.578 376.199 346.962C376.189 348.486 376.133 350.011 376.021 351.532C376.014 351.63 375.968 351.722 375.893 351.787C375.818 351.852 375.721 351.885 375.622 351.878C375.524 351.872 375.432 351.826 375.366 351.752C375.301 351.678 375.267 351.58 375.273 351.482C375.362 349.978 375.397 348.47 375.387 346.962C375.33 341.64 374.821 336.286 373.643 331.122C368.587 309.798 363.415 288.462 358.245 267.147C357.881 265.646 357.533 264.216 357.174 262.736Z" fill="white"/>
<path d="M107.146 180.007C106.616 179.988 106.107 180.182 105.732 180.557C105.357 180.932 105.146 181.457 105.146 182.007C105.146 182.556 105.357 183.082 105.732 183.457C106.107 183.832 106.616 184.026 107.146 184.007C107.725 183.986 108.327 183.962 108.914 183.937C117.194 183.57 125.468 183 133.646 182.564C136.242 182.433 138.632 181.473 140.476 179.601C140.904 179.085 141.46 178.52 141.392 177.424C141.364 177.234 141.259 177.06 141.104 176.941C140.949 176.822 140.757 176.766 140.567 176.787C140.376 176.809 140.201 176.905 140.076 177.055C139.951 177.206 139.887 177.398 139.901 177.59C139.92 177.697 139.666 178.153 139.309 178.47C137.846 179.786 135.619 180.522 133.646 180.45C125.352 180.301 117.109 180.283 108.885 180.062C108.305 180.046 107.713 180.028 107.146 180.007Z" fill="white"/>
<path d="M371.646 184.507C372.177 184.526 372.686 184.332 373.061 183.957C373.436 183.582 373.646 183.057 373.646 182.507C373.646 181.957 373.436 181.431 373.061 181.057C372.686 180.681 372.177 180.487 371.646 180.507C371.068 180.528 370.491 180.549 369.911 180.569C363.322 180.806 356.733 181.043 350.146 181.28C346.566 181.404 342.617 180.709 340.035 178.448C339.682 178.123 339.4 177.666 339.396 177.507C339.389 177.315 339.304 177.131 339.164 176.995C339.023 176.86 338.838 176.783 338.646 176.783C338.455 176.783 338.27 176.86 338.129 176.995C337.989 177.131 337.903 177.315 337.896 177.507C337.938 178.523 338.433 179.052 338.858 179.568C341.941 182.642 346.135 183.543 350.146 183.734C356.733 183.971 363.322 184.207 369.911 184.444C370.491 184.465 371.068 184.486 371.646 184.507Z" fill="white"/>
<defs>
<filter id="filter0_f_102_403" x="78.5562" y="239.448" width="67.5493" height="165.412" filterUnits="userSpaceOnUse" color-interpolation-filters="sRGB">
<feFlood flood-opacity="0" result="BackgroundImageFix"/>
<feBlend mode="normal" in="SourceGraphic" in2="BackgroundImageFix" result="shape"/>
<feGaussianBlur stdDeviation="10" result="effect1_foregroundBlur_102_403"/>
</filter>
<filter id="filter1_f_102_403" x="334.688" y="240.448" width="67.5493" height="165.412" filterUnits="userSpaceOnUse" color-interpolation-filters="sRGB">
<feFlood flood-opacity="0" result="BackgroundImageFix"/>
<feBlend mode="normal" in="SourceGraphic" in2="BackgroundImageFix" result="shape"/>
<feGaussianBlur stdDeviation="10" result="effect1_foregroundBlur_102_403"/>
</filter>
<filter id="filter2_f_102_403" x="328.396" y="167.487" width="57.25" height="29.0549" filterUnits="userSpaceOnUse" color-interpolation-filters="sRGB">
<feFlood flood-opacity="0" result="BackgroundImageFix"/>
<feBlend mode="normal" in="SourceGraphic" in2="BackgroundImageFix" result="shape"/>
<feGaussianBlur stdDeviation="4" result="effect1_foregroundBlur_102_403"/>
</filter>
<filter id="filter3_f_102_403" x="131.418" y="83.0017" width="215.957" height="103.697" filterUnits="userSpaceOnUse" color-interpolation-filters="sRGB">
<feFlood flood-opacity="0" result="BackgroundImageFix"/>
<feBlend mode="normal" in="SourceGraphic" in2="BackgroundImageFix" result="shape"/>
<feGaussianBlur stdDeviation="4" result="effect1_foregroundBlur_102_403"/>
</filter>
<filter id="filter4_f_102_403" x="93.1465" y="167.484" width="57.7471" height="28.5566" filterUnits="userSpaceOnUse" color-interpolation-filters="sRGB">
<feFlood flood-opacity="0" result="BackgroundImageFix"/>
<feBlend mode="normal" in="SourceGraphic" in2="BackgroundImageFix" result="shape"/>
<feGaussianBlur stdDeviation="4" result="effect1_foregroundBlur_102_403"/>
</filter>
<filter id="filter5_f_102_403" x="137.121" y="87.5068" width="204.062" height="69.9939" filterUnits="userSpaceOnUse" color-interpolation-filters="sRGB">
<feFlood flood-opacity="0" result="BackgroundImageFix"/>
<feBlend mode="normal" in="SourceGraphic" in2="BackgroundImageFix" result="shape"/>
<feGaussianBlur stdDeviation="6" result="effect1_foregroundBlur_102_403"/>
</filter>
</defs>
</svg>
